{"title":"Cool!_(2004)_(Nl-gesproken)-2lions+WaRlOrD","uid":4944647,"size":1173772642,"categoryP":"video","categoryS":"movies","magnet":"?xt=urn:btih:3cad1002f19a4564c30bc60f407d4c977ef43ca1&amp;dn=Cool%21_%282004%29_%28Nl-gesproken%29-2lions%2BWaRlOrD&amp;tr=udp%3A%2F%2Ftracker.openbittorrent.com%3A80&amp;tr=udp%3A%2F%2Fopen.demonii.com%3A1337&amp;tr=udp%3A%2F%2Ftracker.coppersurfer.tk%3A6969&amp;tr=udp%3A%2F%2Fexodus.desync.com%3A6969","seeders":1,"leechers":0,"uploader":"bitpirate","files":-1,"time":1244596717,"description":"WaRlOrD and 2lions presents: Cool!\n----------------------------------\n\nNederland\nDrama / Romantiek\n89 minuten\n\ngeregisseerd door Theo van Gogh\nmet Katja Schuurman, Johnny de Mol en Fouad Mourigh\n\nVijf vrienden houden zich bezig met straatroven en andere kleine misdaad, wat vaak gepaard gaat met grof geweld. Als zij door Prof, leider van een bende die zich met grotere misdaad bezighoudt, worden gevraagd te helpen bij een grote overval, stemmen ze toe. De overval mislukt en de vijf vrienden worden opgepakt. Tot hun afgrijzen worden ze niet veroordeeld tot de gebruikelijke jeugdgevangenis, maar tot een alternatieve straf: anderhalf jaar heropvoeding op de harde Glen Mills School. &lt;a href=&quot;\nhttp://www.moviemeter.nl/film/22570&quot; rel=&quot;nofollow&quot; target=&quot;_NEW&quot;&gt;\nhttp://www.moviemeter.nl/film/22570&lt;/a&gt;\n\n--------------------------------------\n\nFormat                           : DivX\nFormat/Info                      : Hack of AVI\nFile size                        : 1.09 GiB\nDuration                         : 1h 33mn\nOverall bit rate                 : 1 672 Kbps\n\nVideo\nFormat                           : MPEG-4 Visual\nFormat settings, BVOP            : Yes\nFormat settings, QPel            : No\nFormat settings, GMC             : No warppoints\nFormat settings, Matrix          : Default (H.263)\nMuxing mode                      : Packed bitstream\nCodec ID                         : DX50\nCodec ID/Hint                    : DivX 5\nDuration                         : 1h 33mn\nBit rate                         : 1 534 Kbps\nWidth                            : 640 pixels\nHeight                           : 480 pixels\nDisplay aspect ratio             : 4/3\nFrame rate                       : 25.000 fps\nResolution                       : 24 bits\nColorimetry                      : 4:2:0\nScan type                        : Progressive\nBits/(Pixel*Frame)               : 0.200\nStream size                      : 1.00 GiB (92%)\nTitle                            : Video \nWriting library                  : DivX 6.8.0 (UTC 2007-12-04)\n\nAudio\nFormat                           : MPEG Audio\nFormat version                   : Version 1\nFormat profile                   : Layer 3\nCodec ID                         : 55\nCodec ID/Hint                    : MP3\nDuration                         : 1h 33mn\nBit rate mode                    : Constant\nBit rate                         : 128 Kbps\nChannel(s)                       : 2 channels\nSampling rate                    : 48.0 KHz\nResolution                       : 16 bits\nStream size                      : 85.7 MiB (8%)\nAlignment                        : Split accross interleaves\nInterleave, duration             : 40 ms (1.00 video frame)\nInterleave, preload duration     : 500 ms\nTitle                            : Audio \nWriting library                  : LAME3.96.1\n\n******************************************\n\nBrought to you by\n\nWaRlOrD\nAND\n2Lions Team\n\nmeer zien??\nKom dan eens kijken op ons forum\nhttp://www.2lions.ons-forum.nl\n\n******************************************\nYou need this reseed? send me a pm @ piratebay forum","torrent":{"xt":"urn:btih:3cad1002f19a4564c30bc60f407d4c977ef43ca1","amp;dn":"Cool%21_%282004%29_%28Nl-gesproken%29-2lions%2BWaRlOrD","amp;tr":["udp%3A%2F%2Ftracker.openbittorrent.com%3A80","udp%3A%2F%2Fopen.demonii.com%3A1337","udp%3A%2F%2Ftracker.coppersurfer.tk%3A6969","udp%3A%2F%2Fexodus.desync.com%3A6969"],"infoHash":"3cad1002f19a4564c30bc60f407d4c977ef43ca1","infoHashBuffer":{"type":"Buffer","data":[60,173,16,2,241,154,69,100,195,11,198,15,64,125,76,151,126,244,60,161]},"announce":[],"urlList":[]}}